<?xml version="1.0" standalone="no"?>
<!DOCTYPE svg PUBLIC "-//W3C//DTD SVG 20010904//EN"
 "http://www.w3.org/TR/2001/REC-SVG-20010904/DTD/svg10.dtd">
<svg version="1.0" xmlns="http://www.w3.org/2000/svg"
 width="497.000000pt" height="502.000000pt" viewBox="0 0 497.000000 502.000000"
 preserveAspectRatio="xMidYMid meet">

<g transform="translate(0.000000,502.000000) scale(0.100000,-0.100000)"
fill="#000000" stroke="none">
<path d="M2381 4640 c-123 -26 -260 -129 -314 -236 -60 -119 -57 -32 -57
-1501 l0 -1343 156 0 155 0 -2 1318 c-2 1449 -5 1360 60 1415 72 60 182 39
228 -45 17 -31 18 -104 21 -1360 l2 -1328 155 0 155 0 -2 1363 -3 1362 -28 65
c-54 129 -171 239 -291 276 -64 19 -177 26 -235 14z"/>
<path d="M3170 3768 l0 -174 74 -42 c559 -318 857 -1001 716 -1642 -64 -295
-198 -540 -414 -756 -220 -220 -464 -351 -763 -411 -135 -27 -415 -24 -550 5
-456 99 -827 388 -1033 806 -274 557 -191 1211 215 1686 77 90 207 205 303
266 l62 39 0 178 c0 130 -3 177 -12 177 -24 0 -213 -115 -312 -189 -352 -264
-598 -656 -692 -1104 -31 -150 -43 -427 -25 -582 64 -545 353 -1026 796 -1325
524 -354 1202 -397 1769 -114 351 176 647 477 816 829 273 569 246 1232 -71
1771 -139 236 -346 451 -575 600 -80 52 -237 135 -281 148 l-23 7 0 -173z"/>
</g>
</svg>
